<svg width="116" height="29" viewBox="0 0 116 29" fill="none" xmlns="http://www.w3.org/2000/svg">
<g clip-path="url(#clip0_33_1118)">
<path d="M0 14.1573C0 12.9988 0.222368 11.9122 0.667102 10.8976C1.11184 9.88299 1.72335 8.99488 2.49911 8.23081C3.27487 7.46922 4.1795 6.87136 5.21553 6.43226C6.24903 5.99565 7.35581 5.77734 8.53588 5.77734C9.71594 5.77734 10.8227 5.99565 11.8562 6.43226C12.8897 6.86887 13.7944 7.46922 14.5726 8.23081C15.3484 8.9924 15.9574 9.88299 16.4021 10.8976C16.8469 11.9147 17.0692 12.9988 17.0692 14.1573V21.8055H14.8961V19.7638L14.555 20.0987C13.7893 20.8504 12.8897 21.4433 11.8562 21.8799C10.8227 22.3165 9.71342 22.5348 8.53588 22.5348C7.35581 22.5348 6.24903 22.3165 5.21553 21.8799C4.1795 21.4433 3.27487 20.843 2.49911 20.0814C1.72335 19.3198 1.11184 18.4317 0.667102 17.4146C0.222368 16.4024 0 15.3158 0 14.1573ZM2.17314 14.1573C2.17314 15.0107 2.33991 15.8169 2.67094 16.5785C3.00196 17.3401 3.4568 18.005 4.03546 18.5731C4.61413 19.1412 5.29134 19.5877 6.06709 19.9127C6.84285 20.2376 7.66662 20.4014 8.53335 20.4014C9.40261 20.4014 10.2239 20.2401 10.9996 19.9127C11.7754 19.5877 12.4526 19.1412 13.0312 18.5731C13.6099 18.005 14.0647 17.3401 14.3958 16.5785C14.7268 15.8169 14.891 15.0107 14.891 14.1573C14.891 13.3039 14.7268 12.4977 14.3958 11.7361C14.0647 10.9745 13.6099 10.3097 13.0312 9.74159C12.4526 9.17349 11.7754 8.72448 10.9996 8.40198C10.2239 8.077 9.40261 7.91575 8.53335 7.91575C7.6641 7.91575 6.84033 8.07948 6.06709 8.40198C5.29134 8.72696 4.61413 9.17349 4.03546 9.74159C3.4568 10.3097 3.00196 10.9745 2.67094 11.7361C2.33739 12.4977 2.17314 13.3039 2.17314 14.1573Z" fill="#F39200"/>
<path d="M30.1762 22.0688H27.2324L20.9479 14.118V22.0688H18.5322V0H20.9479V13.5747L26.0902 6.20436H28.9481L23.629 13.8079L30.1762 22.0688Z" fill="#F39200"/>
<path d="M43.6446 8.80431L41.9465 10.1241C40.6553 8.6505 39.0355 7.91372 37.0873 7.91372C35.2957 7.91372 33.7897 8.51406 32.5641 9.71723C31.3386 10.9204 30.7271 12.4014 30.7271 14.1578C30.7271 15.9166 31.3386 17.3952 32.5641 18.5983C33.7897 19.8015 35.2957 20.4018 37.0873 20.4018C39.0103 20.4018 40.5896 19.7047 41.8278 18.3081L43.5663 19.6254C42.7501 20.5556 41.7873 21.2726 40.6831 21.7786C39.5763 22.2822 38.3786 22.5353 37.0873 22.5353C34.7701 22.5353 32.7688 21.7092 31.0834 20.052C29.3954 18.3974 28.554 16.4326 28.554 14.1578C28.554 11.8308 29.3954 9.85119 31.0834 8.22382C32.7688 6.59396 34.7701 5.78027 37.0873 5.78027C38.4291 5.78027 39.6546 6.03827 40.7614 6.55427C41.8682 7.07275 42.8284 7.82193 43.6446 8.80431Z" fill="#F39200"/>
<path d="M45.4211 0H47.5943V2.32695H45.4211V0ZM45.4211 6.20684H47.5943V22.0688H45.4211V6.20684Z" fill="#F39200"/>
<path d="M42.8159 25.5865C43.6068 26.4399 44.6201 26.8666 45.8582 26.8666C46.965 26.8666 47.9252 26.492 48.7414 25.7428C49.5576 24.9911 49.967 24.0236 49.967 22.8329V6.20684H52.1401V22.8353C52.1401 24.5421 51.5286 25.9958 50.3031 27.199C49.0775 28.4021 47.5968 29.0025 45.8582 29.0025C43.9631 29.0025 42.3964 28.3178 41.1582 26.9459L42.8159 25.5865ZM49.967 0H52.1401V2.13345H49.967V0Z" fill="#F39200"/>
<path d="M68.0596 17.0648L69.9548 18.1116C69.2448 19.4314 68.2163 20.4981 66.872 21.3118C65.5302 22.1255 64.0545 22.5323 62.4474 22.5323C60.1302 22.5323 58.1264 21.7063 56.4435 20.0491C54.758 18.3945 53.9141 16.4297 53.9141 14.1548C53.9141 11.8279 54.7555 9.84826 56.4435 8.22088C58.1289 6.59103 60.1302 5.77734 62.4474 5.77734C63.9231 5.77734 65.3104 6.13953 66.6143 6.86391C67.9181 7.58829 68.9264 8.50617 69.6364 9.61755L58.6141 19.1585C59.7209 19.9871 60.997 20.3989 62.4474 20.3989C63.6578 20.3989 64.7595 20.1012 65.7475 19.5058C66.7355 18.9154 67.5063 18.0992 68.0596 17.0648ZM57.1561 17.6477L66.5991 9.42405C65.414 8.41686 64.0318 7.91079 62.4499 7.91079C60.6584 7.91079 59.1523 8.51113 57.9268 9.7143C56.7012 10.9175 56.0897 12.3985 56.0897 14.1548C56.0897 15.4225 56.446 16.586 57.1561 17.6477Z" fill="#F39200"/>
<path d="M71.0793 19.957H73.2348V22.0731H71.0793V19.957Z" fill="#F39200"/>
<path d="M98.3369 22.0735H96.184V12.0389C96.184 10.8332 95.7772 9.86823 94.9686 9.1364C94.16 8.40458 93.2073 8.03991 92.1081 8.03991C91.0367 8.03991 90.0917 8.40458 89.2704 9.1364C88.4492 9.86823 88.0373 10.8357 88.0373 12.0389V22.0735H85.8844V12.0389C85.8844 10.8332 85.4775 9.86823 84.6715 9.1364C83.8603 8.40458 82.9077 8.03991 81.811 8.03991C80.7396 8.03991 79.7945 8.40458 78.9733 9.1364C78.1495 9.86823 77.7402 10.8357 77.7402 12.0389V22.0735H75.5847V6.34556L77.3864 7.72982C78.6119 6.52665 80.0902 5.92383 81.811 5.92383C82.8546 5.92383 83.8477 6.16694 84.7877 6.65317C85.7277 7.1394 86.458 7.78191 86.981 8.57575C88.2344 6.80698 89.9426 5.92383 92.1107 5.92383C93.0254 5.92383 93.8542 6.09004 94.5997 6.42246C95.3426 6.75488 95.9819 7.18405 96.5176 7.70997C97.0533 8.23341 97.4904 8.86352 97.829 9.59534C98.1676 10.3247 98.3369 11.1384 98.3369 12.0364V22.0735Z" fill="#F39200"/>
<path d="M114.12 17.1125L116 18.1519C115.295 19.4593 114.277 20.5161 112.945 21.3223C111.613 22.1286 110.153 22.5354 108.558 22.5354C106.259 22.5354 104.275 21.7143 102.605 20.0745C100.935 18.4347 100.098 16.4873 100.098 14.2323C100.098 11.9252 100.935 9.96294 102.605 8.34797C104.275 6.733 106.259 5.92676 108.558 5.92676C110.022 5.92676 111.399 6.28647 112.69 7.0034C113.984 7.72034 114.982 8.63078 115.687 9.73223L104.761 19.1913C105.857 20.01 107.123 20.4218 108.561 20.4218C109.761 20.4218 110.853 20.1266 111.831 19.5362C112.809 18.9457 113.572 18.137 114.12 17.1125ZM103.31 17.6905L112.67 9.53873C111.495 8.53899 110.123 8.04036 108.556 8.04036C106.78 8.04036 105.286 8.63822 104.071 9.82898C102.855 11.0173 102.251 12.4883 102.251 14.2298C102.254 15.4851 102.608 16.6386 103.31 17.6905Z" fill="#F39200"/>
</g>
<defs>
<clipPath id="clip0_33_1118">
<rect width="116" height="29" fill="white"/>
</clipPath>
</defs>
</svg>
