<svg width="50" height="40" viewBox="0 0 50 40" fill="none" xmlns="http://www.w3.org/2000/svg">
<g clip-path="url(#clip0_33_1116)">
<path d="M48.6047 5.61153C48.1019 4.57257 47.4165 3.56247 46.5277 2.68765C45.6351 1.81644 44.5317 1.11117 43.3454 0.658433C42.161 0.218318 40.9201 6.37207e-05 39.7413 6.37207e-05C38.5437 -0.00354378 37.4647 0.146168 36.3311 0.413123C36.0223 0.478058 35.8453 0.542993 35.5967 0.607928L35.4235 0.656629L35.3576 0.672863L35.335 0.680078L35.2917 0.694508L35.2051 0.723368L34.8586 0.837004L33.4746 1.30237L30.7122 2.23311C28.8819 2.88967 27.0685 3.59494 25.274 4.33809L22.6057 5.50692C21.7132 5.8839 20.8583 6.3637 19.9902 6.78758C18.271 7.67683 16.5631 8.61839 15.0397 9.79263C16.8248 9.0567 18.6702 8.51918 20.5062 7.98166C22.3496 7.46399 24.2044 6.9878 26.0554 6.52604C26.9819 6.29516 27.9291 6.11839 28.8555 5.89653C29.7895 5.6909 30.7065 5.44559 31.6499 5.27423L34.4575 4.69523L35.8585 4.40482L36.2087 4.32907L36.2953 4.31103L36.3386 4.30201L36.3612 4.2966C36.3782 4.29299 36.2916 4.31464 36.3386 4.30381L36.5156 4.27135C36.7378 4.23527 37.0241 4.16853 37.1917 4.15771C37.9486 4.0549 38.8035 4.01702 39.5341 4.09458C40.2836 4.16312 40.9577 4.35071 41.549 4.62669C42.7165 5.19126 43.5544 6.18693 44.0929 7.50187C44.6258 8.81319 44.8198 10.3734 44.769 11.9463C44.7012 13.5246 44.3848 15.1281 43.8651 16.6559C43.3473 18.1873 42.5978 19.6357 41.6808 20.92C40.7675 22.2079 39.6452 23.3027 38.3893 24.0964C38.0748 24.2948 37.7566 24.4806 37.427 24.6411L37.1785 24.7602L37.1163 24.789L37.1013 24.7962C37.1672 24.7674 37.1069 24.7926 37.1163 24.789L37.0749 24.8071L36.9092 24.8774L36.2483 25.1606C35.7982 25.3572 35.431 25.4889 35.0186 25.6584C34.6063 25.8099 34.1845 25.9687 33.7645 26.113C32.083 26.6739 30.392 27.1628 28.6841 27.4207C26.9781 27.6876 25.2683 27.7995 23.5623 27.6804C21.8582 27.5668 20.1559 27.2602 18.4744 26.7623C16.7947 26.2627 15.1659 25.5195 13.4806 24.8251C9.8181 23.3172 11.3923 21.8651 11.3923 21.8651C12.1248 20.7414 12.7594 19.5419 13.2207 18.2576C13.6802 16.977 13.9815 15.6079 13.9777 14.2064C13.9758 12.8085 13.6538 11.3944 13.0324 10.1462C12.4129 8.89797 11.5373 7.81391 10.5374 6.92106C9.53753 6.02279 8.41148 5.31752 7.26283 4.70064C6.10477 4.09819 4.9147 3.58773 3.6945 3.18008C3.08628 2.97084 2.47241 2.78325 1.85666 2.60829C1.24656 2.42611 0.621399 2.28181 0 2.13571C1.16371 2.64977 2.31236 3.17827 3.41581 3.77532C4.5155 4.37596 5.58694 5.00547 6.57553 5.72517C8.53011 7.16276 10.2192 8.93585 10.9178 10.9723C11.268 11.9842 11.3641 13.0394 11.2323 14.0801C11.1061 15.1209 10.7766 16.1527 10.2964 17.1393C9.81433 18.1242 9.19482 19.0711 8.49433 19.9658C8.14221 20.4113 7.76748 20.8442 7.37581 21.2591C6.99544 21.6613 6.54728 22.0978 6.18951 22.3972C6.18951 22.3972 4.24622 24.0369 6.42112 25.2562C7.84469 26.2897 9.30403 27.3071 10.8556 28.2306C8.76549 29.3489 7.39088 31.5206 7.49256 33.9683C7.63756 37.4351 10.6918 40.1353 14.3129 39.9946C17.9339 39.8558 20.751 36.9301 20.606 33.4615C20.5871 33.0231 20.5212 32.5975 20.4158 32.1898C21.2914 32.3846 22.1783 32.5433 23.0784 32.6371C25.1346 32.868 27.2286 32.85 29.2622 32.5902C29.2133 32.9438 29.1888 33.3027 29.2039 33.6689C29.3489 37.1375 32.4031 39.8377 36.0242 39.697C39.6452 39.5581 42.4622 36.6325 42.3173 33.1638C42.2513 31.5982 41.5904 30.1931 40.5547 29.1325C40.8805 28.9575 41.2006 28.7753 41.5113 28.5787C43.4678 27.3161 45.0589 25.6873 46.2999 23.9124C47.5521 22.1375 48.4427 20.1949 49.0679 18.1963C49.6987 16.1959 50.0094 14.1126 50 11.995C49.9755 9.88101 49.6196 7.69847 48.6047 5.61153ZM14.2263 37.3846C12.3188 37.4586 10.7107 36.0354 10.6353 34.21C10.5581 32.3846 12.042 30.8424 13.9495 30.7703C15.857 30.6981 17.4651 32.1177 17.5404 33.9449C17.6176 35.7703 16.1338 37.3107 14.2263 37.3846ZM35.8698 37.3846C33.9623 37.4586 32.3542 36.0354 32.2788 34.21C32.2016 32.3846 33.6855 30.8424 35.593 30.7703C37.5005 30.6981 39.1086 32.1177 39.1839 33.9449C39.2611 35.7703 37.7773 37.3107 35.8698 37.3846Z" fill="#F39200"/>
</g>
<defs>
<clipPath id="clip0_33_1116">
<rect width="50" height="40" fill="white"/>
</clipPath>
</defs>
</svg>
