<svg width="95" height="74" viewBox="0 0 95 74" fill="none" xmlns="http://www.w3.org/2000/svg">
<path d="M67.7355 12.3282C67.2725 11.3037 66.6423 10.3652 65.8712 9.55193C65.0569 8.71848 64.0821 8.0627 63.007 7.62514C61.9717 7.21725 60.871 7.00535 59.7598 7C58.7246 7.00186 57.6937 7.1336 56.6906 7.39221C56.4144 7.45387 56.255 7.51552 56.0296 7.57718L55.8737 7.62514L55.8144 7.64055H55.7958L55.7568 7.65425L55.6788 7.67994L55.3653 7.78784L54.1196 8.22972L51.6249 9.12033C49.9776 9.74375 48.3461 10.41 46.7304 11.1191L44.3374 12.2237C43.534 12.5817 42.7663 13.0373 41.985 13.4398C40.4377 14.2824 38.9005 15.1782 37.5294 16.2914C39.1361 15.5926 40.797 15.0822 42.4443 14.5787C44.0916 14.0752 45.7728 13.635 47.4405 13.1966C48.2743 12.9773 49.1251 12.8112 49.9606 12.6005C50.7962 12.3899 51.6266 12.1724 52.4757 12.0097L55.0145 11.4582L56.2771 11.1824L56.5906 11.1105L56.6686 11.0916H56.7075H56.7279H56.7075L56.877 11.0608C57.077 11.0266 57.3346 10.9632 57.4854 10.9529C58.1832 10.8469 58.8912 10.8268 59.5938 10.893C60.2237 10.9535 60.8379 11.1275 61.4072 11.4068C62.4562 11.9429 63.2121 12.8883 63.6968 14.1368C64.1815 15.3854 64.351 16.8635 64.3052 18.3552C64.2353 19.8767 63.9616 21.3816 63.4917 22.8288C63.0305 24.2656 62.3685 25.6284 61.5258 26.8759C60.7407 28.0659 59.7346 29.0908 58.5633 29.8937C58.284 30.0806 57.9949 30.2521 57.6973 30.4075L57.4736 30.5206L57.4177 30.548L57.4041 30.5565C57.4617 30.5291 57.4041 30.5565 57.4177 30.5565L57.3804 30.5737L57.2312 30.6404L56.6381 30.9093C56.233 31.096 55.9008 31.2211 55.5297 31.382C55.1585 31.543 54.7789 31.6766 54.4026 31.8136C52.9171 32.3644 51.3857 32.7794 49.8267 33.0536C48.3051 33.3189 46.7579 33.4022 45.2169 33.302C43.6636 33.1898 42.1282 32.8973 40.641 32.4302C39.1293 31.9558 37.6633 31.2502 36.1465 30.5908C32.8501 29.159 34.267 27.7802 34.267 27.7802C34.9423 26.7054 35.4938 25.5562 35.9109 24.3548C36.3479 23.1199 36.5771 21.8196 36.5888 20.5081C36.5904 19.1756 36.3011 17.8593 35.7414 16.6528C35.1908 15.4975 34.4282 14.4584 33.4942 13.5905C32.6004 12.7698 31.6113 12.0618 30.5486 11.4821C29.5152 10.9147 28.4384 10.4319 27.3285 10.0383C26.7828 9.83966 26.2286 9.66154 25.6744 9.49541C25.1202 9.32928 24.5593 9.18712 24 9.04839C25.0474 9.53651 26.0829 10.0383 27.0743 10.6052C28.0612 11.1584 29.0112 11.7763 29.9182 12.455C31.679 13.8251 33.1993 15.5036 33.8263 17.4372C34.1357 18.3882 34.2323 19.3966 34.1094 20.3899C33.9832 21.3973 33.697 22.3776 33.262 23.2929C32.8136 24.2413 32.2701 25.1406 31.6401 25.9768C31.3231 26.3998 30.9859 26.8108 30.6317 27.2048C30.2951 27.584 29.9387 27.9448 29.564 28.2855C29.564 28.2855 27.8149 29.8423 29.7724 31.0001C31.0554 31.9815 32.3688 32.9475 33.7653 33.8261C32.8486 34.3433 32.085 35.0983 31.5531 36.0131C31.0213 36.928 30.7406 37.9696 30.7399 39.0306C30.7392 40.0917 31.0185 41.1337 31.5491 42.0493C32.0797 42.9649 32.8423 43.7208 33.7584 44.2393C34.6744 44.7578 35.7107 45.02 36.7605 44.9988C37.8102 44.9777 38.8353 44.674 39.7302 44.119C40.6251 43.5641 41.3573 42.778 41.8513 41.8417C42.3454 40.9055 42.5834 39.8531 42.5409 38.7929C42.524 38.3886 42.4672 37.987 42.3714 37.594C43.161 37.7842 43.9613 37.926 44.7678 38.0188C46.6171 38.2378 48.4862 38.2229 50.3318 37.9742C50.2865 38.3148 50.2695 38.6585 50.2809 39.0019C50.3223 39.9634 50.5931 40.9007 51.0704 41.7336C51.5476 42.5665 52.2171 43.2705 53.0217 43.7854C53.8264 44.3004 54.7423 44.611 55.6914 44.6909C56.6405 44.7708 57.5947 44.6175 58.4726 44.2442C59.3504 43.8709 60.1259 43.2886 60.7329 42.5469C61.34 41.8052 61.7605 40.9262 61.9587 39.9848C62.1569 39.0434 62.1269 38.0675 61.8712 37.1404C61.6155 36.2132 61.1417 35.3623 60.4903 34.6602C60.7835 34.4889 61.0716 34.3176 61.3495 34.1344C63.0572 32.9537 64.5215 31.4489 65.6611 29.7036C66.7584 28.0322 67.5984 26.2021 68.1524 24.276C68.7234 22.3675 69.009 20.3834 68.9998 18.3895C68.971 16.3822 68.649 14.3115 67.7355 12.3282ZM36.7956 42.4975C36.1809 42.5227 35.5727 42.3632 35.0478 42.0391C34.5228 41.7149 34.1048 41.2408 33.8466 40.6765C33.5884 40.1123 33.5016 39.4833 33.5971 38.8692C33.6926 38.2551 33.9662 37.6834 34.3833 37.2264C34.8004 36.7695 35.3422 36.4478 35.9402 36.302C36.5382 36.1563 37.1656 36.1931 37.7429 36.4077C38.3203 36.6223 38.8216 37.0051 39.1837 37.5078C39.5457 38.0104 39.7521 38.6102 39.7767 39.2314C39.8097 40.0639 39.5143 40.8757 38.9552 41.4881C38.3962 42.1006 37.6194 42.4637 36.7956 42.4975V42.4975ZM56.2737 42.4975C55.6591 42.5224 55.051 42.3626 54.5263 42.0382C54.0016 41.7139 53.5838 41.2396 53.3259 40.6753C53.0679 40.111 52.9813 39.4821 53.077 38.868C53.1728 38.254 53.4465 37.6825 53.8637 37.2257C54.2809 36.7689 54.8227 36.4474 55.4207 36.3018C56.0187 36.1562 56.6459 36.1931 57.2232 36.4078C57.8004 36.6225 58.3017 37.0053 58.6636 37.5079C59.0255 38.0105 59.2319 38.6103 59.2565 39.2314C59.2731 39.6438 59.209 40.0555 59.0681 40.4429C58.9271 40.8303 58.712 41.1859 58.4349 41.4892C58.1579 41.7925 57.8245 42.0377 57.4536 42.2107C57.0828 42.3837 56.6818 42.4812 56.2737 42.4975Z" fill="white"/>
<path d="M8.00012 58.0018C7.9949 57.1994 8.1545 56.4044 8.46903 55.6662C9.08053 54.2267 10.2266 53.0807 11.6661 52.4692C12.4052 52.1595 13.1986 52 14 52C14.8014 52 15.5948 52.1595 16.3339 52.4692C17.7741 53.0796 18.9206 54.226 19.531 55.6662C19.8455 56.4044 20.0051 57.1994 19.9999 58.0018V63.4757H18.4724V62.014L18.2344 62.2556C17.6888 62.798 17.0442 63.2309 16.3357 63.5308C15.5965 63.8405 14.8032 64 14.0018 64C13.2004 64 12.407 63.8405 11.6679 63.5308C10.2284 62.9193 9.0823 61.7732 8.4708 60.3338C8.15613 59.5968 7.99594 58.8031 8.00012 58.0018V58.0018ZM9.52762 58.0018C9.52655 58.5978 9.64744 59.1877 9.88285 59.7353C10.3359 60.8135 11.1936 61.6711 12.2718 62.1241C12.8209 62.3539 13.4101 62.4722 14.0053 62.4722C14.6005 62.4722 15.1898 62.3539 15.7389 62.1241C16.8161 61.6687 17.6719 60.8091 18.1225 59.7299C18.3522 59.1806 18.4705 58.591 18.4705 57.9956C18.4705 57.4001 18.3522 56.8106 18.1225 56.2612C17.6694 55.183 16.8118 54.3253 15.7335 53.8723C15.1845 53.6425 14.5952 53.5242 14 53.5242C13.4048 53.5242 12.8155 53.6425 12.2665 53.8723C11.1882 54.3253 10.3306 55.183 9.87753 56.2612C9.64324 56.8114 9.52415 57.4038 9.52762 58.0018V58.0018Z" fill="white"/>
<path d="M29 63H26.9779L22.6594 57.5983V63H21V48H22.6594V57.2225L26.1916 52.2152H28.1547L24.5097 57.3809L29 63Z" fill="white"/>
<path d="M38 54.1733L36.8733 55.1167C36.4169 54.5355 35.8294 54.0861 35.1655 53.8104C34.5016 53.5348 33.7827 53.4416 33.0758 53.5398C32.3689 53.6379 31.6968 53.9241 31.1221 54.3717C30.5473 54.8194 30.0886 55.4139 29.7884 56.1002C29.4883 56.7864 29.3565 57.542 29.4053 58.2968C29.4541 59.0515 29.6819 59.781 30.0676 60.4172C30.4533 61.0535 30.9843 61.576 31.6113 61.9362C32.2382 62.2963 32.9409 62.4824 33.6538 62.4771C34.2498 62.493 34.8416 62.3667 35.3855 62.1074C35.9294 61.8482 36.4115 61.4627 36.7962 60.9794L37.9464 61.9246C37.4182 62.5834 36.7597 63.1109 36.0179 63.4695C35.276 63.8281 34.4689 64.0091 33.6538 63.9996C32.1543 63.9996 30.7162 63.3676 29.656 62.2424C28.5957 61.1173 28 59.5913 28 58.0001C28 56.4089 28.5957 54.8829 29.656 53.7578C30.7162 52.6326 32.1543 52.0005 33.6538 52.0005C34.4944 51.9886 35.3266 52.1787 36.0881 52.5566C36.8314 52.9369 37.4847 53.4894 38 54.1733V54.1733Z" fill="white"/>
<path d="M39 48H40V49.5809H39V48ZM39 52.2135H40V63H39V52.2135Z" fill="white"/>
<path d="M37.2057 65.6421C37.4829 65.9294 37.8241 66.1572 38.2055 66.3096C38.587 66.462 38.9996 66.5354 39.4146 66.5248C40.1996 66.5371 40.958 66.2604 41.5242 65.755C41.8183 65.499 42.05 65.1876 42.204 64.8415C42.358 64.4955 42.4306 64.1228 42.4169 63.7486V52.2882H44V63.7486C43.9979 64.6104 43.7147 65.4513 43.1877 66.1604C42.6607 66.8695 41.9148 67.4134 41.0482 67.7204C40.1817 68.0274 39.2353 68.0831 38.334 67.88C37.4328 67.6769 36.619 67.2246 36 66.5829L37.2057 65.6421ZM42.4151 48H43.9982V49.471H42.4151V48Z" fill="white"/>
<path d="M54.7005 60.0931L56 60.8459C55.511 61.7961 54.7803 62.5916 53.8861 63.1473C52.9976 63.6923 51.9851 63.9863 50.9509 63.9995C49.9167 64.0128 48.8975 63.7448 47.9961 63.2226C47.0947 62.7005 46.3431 61.9427 45.8172 61.0258C45.2912 60.1088 45.0096 59.0653 45.0008 58.0004C44.9879 57.2045 45.1351 56.4144 45.4333 55.68C45.7315 54.9456 46.1742 54.2827 46.7335 53.7331C47.355 53.1061 48.1037 52.6286 48.9258 52.335C49.7478 52.0414 50.6229 51.9389 51.488 52.0349C52.3531 52.131 53.1868 52.4231 53.9292 52.8904C54.6716 53.3577 55.3042 53.9885 55.7817 54.7375L48.2236 61.5988C48.9239 62.1321 49.7616 62.4405 50.6316 62.4852C51.5015 62.53 52.3649 62.3091 53.1133 61.8503C53.7889 61.4256 54.338 60.8176 54.7005 60.0931V60.0931ZM47.2221 60.5105L53.6972 54.5983C53.0675 54.0282 52.2908 53.6581 51.4611 53.5328C50.6315 53.4074 49.7843 53.5322 49.022 53.8921C48.2598 54.252 47.6151 54.8315 47.1659 55.5605C46.7167 56.2896 46.4823 57.1371 46.4909 58.0004C46.4861 58.8929 46.7408 59.7665 47.2221 60.5087V60.5105Z" fill="white"/>
<path d="M56 62H58V63H56V62Z" fill="white"/>
<path d="M75 63H73.4862V56.1644C73.5018 55.7957 73.4335 55.4282 73.286 55.0869C73.1385 54.7457 72.9153 54.4388 72.6315 54.1872C72.0866 53.707 71.3711 53.4402 70.6282 53.4402C69.8853 53.4402 69.1698 53.707 68.6249 54.1872C68.3375 54.4368 68.1109 54.743 67.9608 55.0845C67.8107 55.426 67.7409 55.7945 67.756 56.1644V63H66.244V56.1644C66.2596 55.7957 66.1914 55.4282 66.0438 55.0869C65.8963 54.7457 65.6731 54.4388 65.3894 54.1872C64.8444 53.707 64.1289 53.4402 63.386 53.4402C62.6431 53.4402 61.9276 53.707 61.3827 54.1872C61.0952 54.4366 60.8685 54.7428 60.7187 55.0844C60.569 55.4259 60.4996 55.7946 60.5156 56.1644V63H59V52.2877L60.2669 53.2307C60.6695 52.8343 61.1533 52.5206 61.6884 52.309C62.2235 52.0974 62.7986 51.9924 63.378 52.0004C64.1081 51.9995 64.8271 52.1701 65.4711 52.4973C66.0962 52.7988 66.6278 53.2502 67.0133 53.8069C67.8946 52.6037 69.0969 52.0016 70.6202 52.0004C71.2224 51.9919 71.8194 52.1072 72.3703 52.3384C72.8714 52.5524 73.3282 52.85 73.7189 53.2172C74.1058 53.5878 74.4183 54.0225 74.6411 54.4998C74.8842 55.0233 75.0054 55.5905 74.9964 56.1627L75 63Z" fill="white"/>
<path d="M85.689 60.0835L87 60.8345C86.5062 61.7796 85.7696 62.5712 84.8685 63.1252C83.9493 63.7047 82.8872 64.0079 81.8054 63.9998C80.2565 63.9726 78.7802 63.3286 77.6943 62.2063C76.6085 61.0841 76 59.5735 76 57.9999C76 56.4264 76.6085 54.9158 77.6943 53.7935C78.7802 52.6713 80.2565 52.0272 81.8054 52C82.7933 52.0088 83.7641 52.2641 84.632 52.7436C85.5 53.223 86.2387 53.9119 86.783 54.7495L79.1516 61.5837C79.859 62.1159 80.7054 62.4236 81.5845 62.4683C82.4636 62.5129 83.3361 62.2925 84.0921 61.8347C84.771 61.409 85.323 60.8036 85.689 60.0835ZM78.1406 60.4994L84.6691 54.6097C84.0333 54.042 83.2491 53.6736 82.4115 53.5491C81.5738 53.4245 80.7186 53.5491 79.9492 53.9078C79.1799 54.2666 78.5293 54.844 78.0762 55.5704C77.623 56.2968 77.3868 57.1409 77.3959 58.0008C77.3924 58.8906 77.6518 59.761 78.1406 60.4994V60.4994Z" fill="white"/>
</svg>
